<svg width="95" height="95" viewBox="0 0 95 95" fill="none" xmlns="http://www.w3.org/2000/svg">
<g clip-path="url(#clip0_312_2090)">
<path d="M51 44L85 10" stroke="#212427" stroke-opacity="0.4" stroke-width="5" stroke-linecap="round" stroke-linejoin="round"/>
<path d="M53.8333 15.6667C55.3981 15.6667 56.6667 14.3981 56.6667 12.8333C56.6667 11.2685 55.3981 10 53.8333 10C52.2685 10 51 11.2685 51 12.8333C51 14.3981 52.2685 15.6667 53.8333 15.6667Z" fill="#212427" fill-opacity="0.4" stroke="#212427" stroke-opacity="0.4" stroke-width="5" stroke-linecap="round" stroke-linejoin="round"/>
<path d="M82.1667 44C83.7315 44 85 42.7315 85 41.1666C85 39.6018 83.7315 38.3333 82.1667 38.3333C80.6019 38.3333 79.3333 39.6018 79.3333 41.1666C79.3333 42.7315 80.6019 44 82.1667 44Z" fill="#212427" fill-opacity="0.4" stroke="#212427" stroke-opacity="0.4" stroke-width="5" stroke-linecap="round" stroke-linejoin="round"/>
<path d="M28.3333 -0.200013C28.3333 -3.50638 29.6468 -6.67732 31.9847 -9.01528C34.3227 -11.3532 37.4936 -12.6667 40.8 -12.6667H46.4667C49.7584 -12.6686 52.9158 -13.9723 55.25 -16.2933L59.2167 -20.26C60.3752 -21.4251 61.7526 -22.3496 63.2697 -22.9805C64.7868 -23.6114 66.4136 -23.9362 68.0567 -23.9362C69.6997 -23.9362 71.3265 -23.6114 72.8436 -22.9805C74.3607 -22.3496 75.7381 -21.4251 76.8967 -20.26L80.8633 -16.2933C83.1975 -13.9723 86.3549 -12.6686 89.6467 -12.6667H95.3133C98.6197 -12.6667 101.791 -11.3532 104.129 -9.01528C106.467 -6.67732 107.78 -3.50638 107.78 -0.200013V5.46665C107.782 8.75841 109.086 11.9158 111.407 14.25L115.373 18.2167C116.538 19.3752 117.463 20.7526 118.094 22.2697C118.725 23.7868 119.05 25.4136 119.05 27.0567C119.05 28.6997 118.725 30.3265 118.094 31.8436C117.463 33.3607 116.538 34.7381 115.373 35.8967L111.407 39.8633C109.086 42.1975 107.782 45.3549 107.78 48.6467V54.3133C107.78 57.6197 106.467 60.7906 104.129 63.1286C101.791 65.4665 98.6197 66.78 95.3133 66.78H89.6467C86.3549 66.7819 83.1975 68.0856 80.8633 70.4067L76.8967 74.3733C75.7381 75.5384 74.3607 76.4629 72.8436 77.0938C71.3265 77.7247 69.6997 78.0495 68.0567 78.0495C66.4136 78.0495 64.7868 77.7247 63.2697 77.0938C61.7526 76.4629 60.3752 75.5384 59.2167 74.3733L55.25 70.4067C52.9158 68.0856 49.7584 66.7819 46.4667 66.78H40.8C37.4936 66.78 34.3227 65.4665 31.9847 63.1286C29.6468 60.7906 28.3333 57.6197 28.3333 54.3133V48.6467C28.3314 45.3549 27.0277 42.1975 24.7067 39.8633L20.74 35.8967C19.5749 34.7381 18.6504 33.3607 18.0195 31.8436C17.3886 30.3265 17.0638 28.6997 17.0638 27.0567C17.0638 25.4136 17.3886 23.7868 18.0195 22.2697C18.6504 20.7526 19.5749 19.3752 20.74 18.2167L24.7067 14.25C27.0277 11.9158 28.3314 8.75841 28.3333 5.46665V-0.200013" stroke="#212427" stroke-opacity="0.4" stroke-width="5" stroke-linecap="round" stroke-linejoin="round"/>
</g>
<defs>
<clipPath id="clip0_312_2090">
<rect width="136" height="136" fill="white" transform="translate(0 -41)"/>
</clipPath>
</defs>
</svg>
