<svg width="115" height="115" viewBox="0 0 115 115" fill="none" xmlns="http://www.w3.org/2000/svg">
<g clip-path="url(#clip0_1607_5245)">
<path d="M121.056 70.9339H120.81V62.8942C120.81 57.8319 119.866 52.9006 118.006 48.2376C117.689 47.4412 116.785 47.0534 115.989 47.3706C115.192 47.6884 114.804 48.5917 115.122 49.3881C116.835 53.6836 117.704 58.2275 117.704 62.8942V70.9339H47.0008C46.1433 70.9339 45.4481 71.6291 45.4481 72.4866C45.4481 73.3441 46.1433 74.0393 47.0008 74.0393H121.056C122.07 74.0393 122.895 74.8639 122.895 75.8778V83.1265C122.895 84.1402 122.07 84.9648 121.056 84.9648H24.9439C23.9303 84.9648 23.1055 84.1402 23.1055 83.1265V75.8778C23.1055 74.8641 23.9301 74.0393 24.9439 74.0393H39.7098C40.5673 74.0393 41.2625 73.3441 41.2625 72.4866C41.2625 71.6291 40.5673 70.9339 39.7098 70.9339H28.2957V62.8942C28.2957 42.7865 44.6545 26.4277 64.7622 26.4277H81.2378C81.3798 26.4277 81.5193 26.4317 81.6603 26.4331C82.0384 37.7544 91.3643 46.848 102.776 46.848C114.426 46.848 123.905 37.3697 123.905 25.7191C123.905 14.5907 115.257 5.4451 104.329 4.64741V-0.929596C104.329 -1.78712 103.633 -2.48233 102.776 -2.48233C101.918 -2.48233 101.223 -1.78712 101.223 -0.929596V4.64762C91.0883 5.38734 82.9166 13.3071 81.7829 23.3293C81.7551 23.32 78.5946 23.322 78.4282 23.3223V17.9249C78.4282 15.1667 76.1841 12.9225 73.4257 12.9225C70.6672 12.9225 68.4232 15.1665 68.4232 17.9249V23.3223H64.7622C42.9422 23.3223 25.1903 41.0742 25.1903 62.8942V70.9339H24.9439C22.2179 70.9339 20 73.1516 20 75.8778V83.1265C20 85.8525 22.2177 88.0703 24.9439 88.0703H121.056C123.782 88.0703 126 85.8525 126 83.1265V75.8778C126 73.1518 123.782 70.9339 121.056 70.9339ZM102.776 7.69595C112.714 7.69595 120.799 15.7811 120.799 25.7195C120.799 35.6578 112.714 43.743 102.776 43.743C92.8375 43.743 84.7523 35.6578 84.7523 25.7195C84.7523 15.7811 92.8377 7.69595 102.776 7.69595ZM71.529 17.9252C71.529 16.8792 72.3799 16.0281 73.4261 16.0281C74.4722 16.0281 75.3231 16.879 75.3231 17.9252V23.322H71.5293L71.529 17.9252Z" fill="#294B29" fill-opacity="0.5"/>
<path d="M102.776 41.2584C111.344 41.2584 118.315 34.2877 118.315 25.7193C118.315 17.1509 111.344 10.1803 102.776 10.1803C94.2074 10.1803 87.2367 17.1511 87.2367 25.7193C87.2367 34.2875 94.2076 41.2584 102.776 41.2584ZM102.776 13.286C109.632 13.286 115.21 18.8636 115.21 25.7195C115.21 32.5753 109.632 38.1532 102.776 38.1532C95.9198 38.1532 90.3422 32.5755 90.3422 25.7195C90.3422 18.8634 95.92 13.286 102.776 13.286Z" fill="#294B29" fill-opacity="0.5"/>
<path d="M102.776 27.2722C103.633 27.2722 104.329 26.577 104.329 25.7195V19.3607C104.329 18.5032 103.633 17.808 102.776 17.808C101.918 17.808 101.223 18.5032 101.223 19.3607V25.7195C101.223 26.577 101.918 27.2722 102.776 27.2722Z" fill="#294B29" fill-opacity="0.5"/>
<path d="M84.6797 8.86673C85.5822 8.86673 86.4933 8.59883 87.2858 8.0413L91.2898 5.22422C93.3373 3.7837 93.8311 0.94613 92.3906 -1.10162C91.3165 -2.62826 89.7122 -3.6452 87.8734 -3.96507C86.0341 -4.28534 84.181 -3.86983 82.6545 -2.79575C81.1279 -1.72168 80.1109 -0.11739 79.7909 1.72146C79.471 3.56031 79.8861 5.41386 80.9602 6.94051C81.843 8.19574 83.2506 8.86673 84.6797 8.86673ZM84.4412 -0.255894C85.1027 -0.7213 85.8745 -0.96394 86.667 -0.96394C86.8906 -0.96394 87.1158 -0.944687 87.3409 -0.905558C88.3626 -0.727718 89.2541 -0.16273 89.8507 0.685477C90.306 1.33245 90.1499 2.22931 89.5029 2.68436L85.4989 5.50144C84.8515 5.95649 83.9551 5.80039 83.5 5.15363C82.268 3.40276 82.6901 0.976149 84.4412 -0.255894Z" fill="#294B29" fill-opacity="0.5"/>
<path d="M114.262 5.22442L118.266 8.04129C119.039 8.58558 119.942 8.86942 120.869 8.86942C121.13 8.86942 121.394 8.84685 121.657 8.80089C122.851 8.59303 123.894 7.93239 124.592 6.94051C125.666 5.41386 126.081 3.56031 125.761 1.72145C125.441 -0.117605 124.424 -1.72168 122.897 -2.79576C121.371 -3.86984 119.517 -4.28556 117.678 -3.96507C115.84 -3.64521 114.235 -2.62807 113.161 -1.10142C112.463 -0.109531 112.194 1.09456 112.401 2.28934C112.609 3.48412 113.27 4.52652 114.262 5.22442ZM115.701 0.68547C116.456 -0.387573 117.66 -0.961672 118.882 -0.961672C119.654 -0.961672 120.433 -0.732695 121.111 -0.255902C122.862 0.976141 123.284 3.40276 122.052 5.15362C121.832 5.46706 121.502 5.67575 121.125 5.74138C120.747 5.80722 120.367 5.72171 120.053 5.50122L116.049 2.68415C115.736 2.46366 115.527 2.13427 115.461 1.75686C115.395 1.37944 115.481 0.998915 115.701 0.68547Z" fill="#294B29" fill-opacity="0.5"/>
<path d="M42.1478 15.4236V21.2145C42.1478 22.072 42.843 22.7672 43.7005 22.7672C44.558 22.7672 45.2532 22.072 45.2532 21.2145V15.4236C45.2532 13.1444 44.3655 11.0014 42.7537 9.38948C41.7285 8.36426 41.1639 7.00117 41.1639 5.55133V-1.46103C41.1639 -2.31855 40.4687 -3.01376 39.6112 -3.01376C38.7537 -3.01376 38.0585 -2.31855 38.0585 -1.46103V5.55153C38.0585 7.83095 38.9462 9.97372 40.5578 11.5857C41.583 12.6109 42.1478 13.974 42.1478 15.4236Z" fill="#294B29" fill-opacity="0.5"/>
<path d="M52.4012 15.4236C52.4012 16.2811 53.0964 16.9763 53.9539 16.9763C54.8114 16.9763 55.5066 16.2811 55.5066 15.4236C55.5066 13.1442 54.6189 11.0014 53.0072 9.38948C51.9819 8.36426 51.4174 7.00117 51.4174 5.55133V-1.46103C51.4174 -2.31855 50.7221 -3.01376 49.8646 -3.01376C49.0071 -3.01376 48.3119 -2.31855 48.3119 -1.46103V5.55153C48.3119 7.83095 49.1994 9.97393 50.8112 11.5857C51.8366 12.6107 52.4012 13.9738 52.4012 15.4236Z" fill="#294B29" fill-opacity="0.5"/>
<path d="M62.1632 12.0403C62.5605 12.0403 62.958 11.8888 63.2611 11.5855C63.8675 10.9791 63.8675 9.99587 63.2611 9.38968C62.2358 8.36447 61.6713 7.00137 61.6713 5.55153V-1.46103C61.6713 -2.31855 60.9761 -3.01376 60.1185 -3.01376C59.261 -3.01376 58.5658 -2.31855 58.5658 -1.46103V5.55153C58.5658 7.83095 59.4535 9.97372 61.0653 11.5857C61.3684 11.8888 61.7657 12.0403 62.1632 12.0403Z" fill="#294B29" fill-opacity="0.5"/>
</g>
<defs>
<clipPath id="clip0_1607_5245">
<rect width="106" height="106" fill="white" transform="translate(20 -11)"/>
</clipPath>
</defs>
</svg>
