<svg width="224" height="60" viewBox="0 0 224 60" fill="none" xmlns="http://www.w3.org/2000/svg">
<path d="M38.484 40H34.772L33.044 28.224C32.8947 27.0933 32.8093 26.3573 32.788 26.016C32.532 26.4853 32.1053 27.168 31.508 28.064L26.548 35.616H25.78L20.852 28.064C20.3827 27.4027 19.9347 26.6987 19.508 25.952C19.4867 26.3573 19.444 26.7947 19.38 27.264C19.316 27.7333 19.2733 28.064 19.252 28.256L17.588 40H13.876L17.076 18.08H18.196L24.756 28.128C25.268 28.9387 25.7373 29.696 26.164 30.4C26.5907 29.696 27.06 28.9387 27.572 28.128L34.164 18.08H35.284L38.484 40ZM48.4875 40.416C47.0155 40.416 45.6928 40.096 44.5195 39.456C43.3675 38.816 42.4608 37.92 41.7995 36.768C41.1595 35.616 40.8395 34.3147 40.8395 32.864C40.8395 31.4133 41.1595 30.1227 41.7995 28.992C42.4608 27.84 43.3675 26.944 44.5195 26.304C45.6928 25.664 47.0155 25.344 48.4875 25.344C49.9595 25.344 51.2822 25.664 52.4555 26.304C53.6288 26.944 54.5355 27.84 55.1755 28.992C55.8368 30.1227 56.1675 31.4133 56.1675 32.864C56.1675 34.3147 55.8368 35.616 55.1755 36.768C54.5355 37.92 53.6288 38.816 52.4555 39.456C51.2822 40.096 49.9595 40.416 48.4875 40.416ZM48.4875 37.312C49.7248 37.312 50.7168 36.9067 51.4635 36.096C52.2315 35.264 52.6155 34.1867 52.6155 32.864C52.6155 31.5413 52.2315 30.4747 51.4635 29.664C50.7168 28.832 49.7248 28.416 48.4875 28.416C47.2715 28.416 46.2795 28.832 45.5115 29.664C44.7435 30.496 44.3595 31.5627 44.3595 32.864C44.3595 34.1653 44.7435 35.232 45.5115 36.064C46.2795 36.896 47.2715 37.312 48.4875 37.312ZM59.9685 18.24H68.3205C69.8138 18.24 71.1152 18.5707 72.2245 19.232C73.3338 19.872 74.1765 20.736 74.7525 21.824C75.3285 22.8907 75.6165 24.032 75.6165 25.248C75.6165 26.464 75.3285 27.5947 74.7525 28.64C74.1765 29.664 73.3338 30.496 72.2245 31.136C71.1152 31.7547 69.7925 32.064 68.2565 32.064H63.7445V40H59.9685V18.24ZM67.8405 28.832C69.1418 28.832 70.1232 28.48 70.7845 27.776C71.4672 27.072 71.8085 26.2187 71.8085 25.216C71.8085 24.1707 71.4565 23.296 70.7525 22.592C70.0485 21.888 69.1098 21.536 67.9365 21.536H63.7445V28.832H67.8405ZM84.2308 25.344C86.2361 25.344 87.8148 25.9733 88.9668 27.232C90.1401 28.4907 90.7268 30.1973 90.7268 32.352C90.7268 32.6933 90.6841 33.248 90.5988 34.016H80.3588C80.5721 35.1467 81.0841 36.0213 81.8948 36.64C82.7268 37.2373 83.7294 37.536 84.9028 37.536C85.6921 37.536 86.3854 37.4293 86.9828 37.216C87.6014 36.9813 88.1668 36.64 88.6788 36.192L90.1508 38.432C89.3188 39.0933 88.4548 39.5947 87.5588 39.936C86.6628 40.256 85.6708 40.416 84.5828 40.416C83.0681 40.416 81.7241 40.096 80.5508 39.456C79.3988 38.816 78.4921 37.92 77.8307 36.768C77.1908 35.616 76.8708 34.304 76.8708 32.832C76.8708 31.4453 77.1801 30.1867 77.7988 29.056C78.4388 27.904 79.3134 26.9973 80.4227 26.336C81.5534 25.6747 82.8228 25.344 84.2308 25.344ZM84.1667 28.192C83.2068 28.192 82.3854 28.5013 81.7028 29.12C81.0201 29.7173 80.5721 30.56 80.3588 31.648H87.4308C87.3881 30.5387 87.0681 29.6853 86.4708 29.088C85.8734 28.4907 85.1054 28.192 84.1667 28.192ZM98.2773 40.32C96.2293 40.32 94.3839 39.7973 92.7413 38.752L94.1173 36.288C95.3759 37.0773 96.6773 37.472 98.0213 37.472C98.6613 37.472 99.1733 37.344 99.5573 37.088C99.9413 36.8107 100.133 36.448 100.133 36C100.133 35.5307 99.9093 35.1573 99.4613 34.88C99.0133 34.5813 98.3199 34.2507 97.3813 33.888C96.1013 33.3973 95.1093 32.8213 94.4053 32.16C93.7013 31.4773 93.3493 30.592 93.3493 29.504C93.3493 28.2453 93.8293 27.264 94.7893 26.56C95.7706 25.856 96.9759 25.504 98.4053 25.504C100.048 25.504 101.605 25.9307 103.077 26.784L101.861 29.12C100.795 28.5653 99.7386 28.288 98.6933 28.288C98.0959 28.288 97.6053 28.384 97.2213 28.576C96.8586 28.768 96.6773 29.0773 96.6773 29.504C96.6773 29.9307 96.8906 30.304 97.3173 30.624C97.7653 30.9227 98.4159 31.2213 99.2693 31.52C100.656 32.032 101.712 32.6293 102.437 33.312C103.184 33.9947 103.557 34.8907 103.557 36C103.557 37.3227 103.067 38.3787 102.085 39.168C101.125 39.936 99.8559 40.32 98.2773 40.32ZM112.4 25.472C114.256 25.472 115.696 25.9307 116.72 26.848C117.766 27.7653 118.288 29.0773 118.288 30.784V40H115.952L115.312 37.856C114.779 38.624 114.075 39.2213 113.2 39.648C112.347 40.0747 111.355 40.288 110.224 40.288C108.88 40.288 107.792 39.936 106.96 39.232C106.15 38.5067 105.744 37.5253 105.744 36.288C105.744 34.688 106.395 33.4507 107.696 32.576C108.998 31.68 110.758 31.232 112.976 31.232C113.488 31.232 114.086 31.2533 114.768 31.296V30.656C114.768 29.9307 114.512 29.3867 114 29.024C113.488 28.64 112.774 28.448 111.856 28.448C110.491 28.448 109.008 28.832 107.408 29.6L106.416 26.944C108.571 25.9627 110.566 25.472 112.4 25.472ZM111.248 37.664C112.294 37.664 113.147 37.3013 113.808 36.576C114.491 35.8507 114.843 34.848 114.864 33.568C114.288 33.504 113.734 33.472 113.2 33.472C111.942 33.472 110.96 33.6853 110.256 34.112C109.552 34.5387 109.2 35.1467 109.2 35.936C109.2 36.4907 109.382 36.9173 109.744 37.216C110.107 37.5147 110.608 37.664 111.248 37.664ZM130.076 25.344C131.698 25.344 132.935 25.8453 133.788 26.848C134.663 27.8293 135.1 29.2373 135.1 31.072V40H131.612V31.392C131.612 29.4507 130.802 28.48 129.18 28.48C128.114 28.48 127.26 28.8213 126.62 29.504C126.002 30.1867 125.692 31.072 125.692 32.16V40H122.204V25.728H124.572L125.276 27.968C125.788 27.1787 126.439 26.5493 127.228 26.08C128.039 25.5893 128.988 25.344 130.076 25.344ZM165.793 39.904V40H161.857L160.065 36.064H149.857L148.097 40H144.129V39.936L154.401 18.112H155.553L165.793 39.904ZM154.977 24.192C154.507 25.472 154.017 26.7093 153.505 27.904L151.137 33.088H158.817L156.449 27.904C155.851 26.5813 155.361 25.344 154.977 24.192ZM176.21 25.376C177.511 25.376 178.674 25.696 179.698 26.336C180.743 26.976 181.554 27.8613 182.13 28.992C182.727 30.1227 183.026 31.392 183.026 32.8C183.026 34.272 182.727 35.584 182.13 36.736C181.554 37.8667 180.743 38.752 179.698 39.392C178.674 40.032 177.511 40.352 176.21 40.352C175.25 40.352 174.354 40.1813 173.522 39.84C172.711 39.4773 172.007 38.9867 171.41 38.368C171.452 39.0293 171.474 40.16 171.474 41.76V47.04H167.986V25.728H170.354L171.026 27.904C171.623 27.0933 172.359 26.4747 173.234 26.048C174.13 25.6 175.122 25.376 176.21 25.376ZM175.474 37.312C176.668 37.312 177.628 36.9067 178.354 36.096C179.1 35.264 179.474 34.1973 179.474 32.896C179.474 31.5733 179.1 30.5067 178.354 29.696C177.628 28.864 176.668 28.448 175.474 28.448C174.236 28.448 173.234 28.8533 172.466 29.664C171.719 30.4747 171.346 31.5307 171.346 32.832C171.346 34.176 171.73 35.264 172.498 36.096C173.266 36.9067 174.258 37.312 175.474 37.312ZM194.522 25.376C195.823 25.376 196.986 25.696 198.01 26.336C199.055 26.976 199.866 27.8613 200.442 28.992C201.039 30.1227 201.338 31.392 201.338 32.8C201.338 34.272 201.039 35.584 200.442 36.736C199.866 37.8667 199.055 38.752 198.01 39.392C196.986 40.032 195.823 40.352 194.522 40.352C193.562 40.352 192.666 40.1813 191.834 39.84C191.023 39.4773 190.319 38.9867 189.722 38.368C189.765 39.0293 189.786 40.16 189.786 41.76V47.04H186.298V25.728H188.666L189.338 27.904C189.935 27.0933 190.671 26.4747 191.546 26.048C192.442 25.6 193.434 25.376 194.522 25.376ZM193.786 37.312C194.981 37.312 195.941 36.9067 196.666 36.096C197.413 35.264 197.786 34.1973 197.786 32.896C197.786 31.5733 197.413 30.5067 196.666 29.696C195.941 28.864 194.981 28.448 193.786 28.448C192.549 28.448 191.546 28.8533 190.778 29.664C190.031 30.4747 189.658 31.5307 189.658 32.832C189.658 34.176 190.042 35.264 190.81 36.096C191.578 36.9067 192.57 37.312 193.786 37.312ZM204.963 18.24H208.963L208.547 33.984H205.379L204.963 18.24ZM206.979 40.384C206.36 40.384 205.827 40.192 205.379 39.808C204.931 39.424 204.707 38.88 204.707 38.176C204.707 37.4507 204.931 36.896 205.379 36.512C205.827 36.128 206.36 35.936 206.979 35.936C207.597 35.936 208.12 36.128 208.547 36.512C208.995 36.896 209.219 37.4507 209.219 38.176C209.219 38.88 208.995 39.424 208.547 39.808C208.12 40.192 207.597 40.384 206.979 40.384Z" fill="#F57E20"/>
</svg>
