<svg width="45" height="45" viewBox="0 0 45 45" fill="none" xmlns="http://www.w3.org/2000/svg">
<rect width="45" height="45" rx="22.5" fill="#F57E20" fill-opacity="0.2"/>
<path d="M35.1522 32.9024H9.84778V35.4883H35.1522V32.9024Z" stroke="#F57E20" stroke-width="0.8" stroke-linecap="round" stroke-linejoin="round"/>
<path d="M33.8602 12.0976H11.1397C10.4249 12.0976 9.84778 11.5184 9.84778 10.8056C9.84778 10.0908 10.4269 9.51367 11.1397 9.51367H33.8582C34.573 9.51367 35.1502 10.0928 35.1502 10.8056C35.1502 11.5204 34.571 12.0976 33.8582 12.0976H33.8602Z" stroke="#F57E20" stroke-width="0.8" stroke-linecap="round" stroke-linejoin="round"/>
<path d="M35.1522 20.9914H9.84778C9.84778 18.5816 11.8019 16.6275 14.2117 16.6275H30.7883C33.1981 16.6275 35.1522 18.5816 35.1522 20.9914Z" stroke="#F57E20" stroke-width="0.8" stroke-linecap="round" stroke-linejoin="round"/>
<path d="M33.0786 20.9914H11.9214V32.9024H33.0786V20.9914Z" stroke="#F57E20" stroke-width="0.8" stroke-linecap="round" stroke-linejoin="round"/>
<path d="M14.2117 12.0976V16.6275" stroke="#F57E20" stroke-width="0.8" stroke-linecap="round" stroke-linejoin="round"/>
<path d="M30.6688 12.0976V16.6275" stroke="#F57E20" stroke-width="0.8" stroke-linecap="round" stroke-linejoin="round"/>
<path d="M30.7054 22.7248H18.6019V30.9362H30.7054V22.7248Z" stroke="#F57E20" stroke-width="0.8" stroke-linecap="round" stroke-linejoin="round"/>
<path d="M20.1996 25.6124L21.4693 28.4353H23.0589L23.4517 29.6503" stroke="#F57E20" stroke-width="0.8" stroke-linecap="round" stroke-linejoin="round"/>
<path d="M21.0217 29.6503L21.4693 28.4353" stroke="#F57E20" stroke-width="0.8" stroke-linecap="round" stroke-linejoin="round"/>
<path d="M23.3667 26.0762H26.226" stroke="#F57E20" stroke-width="0.8" stroke-linecap="round" stroke-linejoin="round"/>
<path d="M24.7964 29.1866V26.0762" stroke="#F57E20" stroke-width="0.8" stroke-linecap="round" stroke-linejoin="round"/>
<path d="M29.4093 25.6124L28.1255 28.4353H26.5176L26.1207 29.6503" stroke="#F57E20" stroke-width="0.8" stroke-linecap="round" stroke-linejoin="round"/>
<path d="M28.5791 29.6503L28.1255 28.4353" stroke="#F57E20" stroke-width="0.8" stroke-linecap="round" stroke-linejoin="round"/>
<path d="M15.775 25.6124H11.9214V32.9024H15.775V25.6124Z" stroke="#F57E20" stroke-width="0.8" stroke-linecap="round" stroke-linejoin="round"/>
<path d="M14.2117 29.6662V29.6341" stroke="#F57E20" stroke-width="0.8" stroke-linecap="round" stroke-linejoin="round"/>
</svg>
