<svg width="80" height="80" viewBox="0 0 80 80" fill="none" xmlns="http://www.w3.org/2000/svg">
<rect width="80" height="80" rx="40" fill="#5F0F40" fill-opacity="0.2"/>
<path d="M62.4928 58.4932H17.5072V63.0904H62.4928V58.4932Z" stroke="#5F0F40" stroke-width="2" stroke-linecap="round" stroke-linejoin="round"/>
<path d="M60.196 21.5068H19.804C18.5332 21.5068 17.5072 20.4772 17.5072 19.21C17.5072 17.9392 18.5368 16.9132 19.804 16.9132H60.1924C61.4632 16.9132 62.4892 17.9428 62.4892 19.21C62.4892 20.4808 61.4596 21.5068 60.1924 21.5068H60.196Z" stroke="#5F0F40" stroke-width="2" stroke-linecap="round" stroke-linejoin="round"/>
<path d="M62.4928 37.318H17.5072C17.5072 33.034 20.9812 29.56 25.2652 29.56H54.7348C59.0188 29.56 62.4928 33.034 62.4928 37.318Z" stroke="#5F0F40" stroke-width="2" stroke-linecap="round" stroke-linejoin="round"/>
<path d="M58.8064 37.318H21.1936V58.4932H58.8064V37.318Z" stroke="#5F0F40" stroke-width="2" stroke-linecap="round" stroke-linejoin="round"/>
<path d="M25.2652 21.5068V29.56" stroke="#5F0F40" stroke-width="2" stroke-linecap="round" stroke-linejoin="round"/>
<path d="M54.5224 21.5068V29.56" stroke="#5F0F40" stroke-width="2" stroke-linecap="round" stroke-linejoin="round"/>
<path d="M54.5872 40.3996H33.07V54.9976H54.5872V40.3996Z" stroke="#5F0F40" stroke-width="2" stroke-linecap="round" stroke-linejoin="round"/>
<path d="M35.9104 45.5332L38.1676 50.5516H40.9936L41.692 52.7116" stroke="#5F0F40" stroke-width="2" stroke-linecap="round" stroke-linejoin="round"/>
<path d="M37.372 52.7116L38.1676 50.5516" stroke="#5F0F40" stroke-width="2" stroke-linecap="round" stroke-linejoin="round"/>
<path d="M41.5408 46.3576H46.624" stroke="#5F0F40" stroke-width="2" stroke-linecap="round" stroke-linejoin="round"/>
<path d="M44.0824 51.8872V46.3576" stroke="#5F0F40" stroke-width="2" stroke-linecap="round" stroke-linejoin="round"/>
<path d="M52.2832 45.5332L50.0008 50.5516H47.1424L46.4368 52.7116" stroke="#5F0F40" stroke-width="2" stroke-linecap="round" stroke-linejoin="round"/>
<path d="M50.8072 52.7116L50.0008 50.5516" stroke="#5F0F40" stroke-width="2" stroke-linecap="round" stroke-linejoin="round"/>
<path d="M28.0444 45.5332H21.1936V58.4932H28.0444V45.5332Z" stroke="#5F0F40" stroke-width="2" stroke-linecap="round" stroke-linejoin="round"/>
<path d="M25.2652 52.7404V52.6828" stroke="#5F0F40" stroke-width="2" stroke-linecap="round" stroke-linejoin="round"/>
</svg>
