<svg width="24" height="24" viewBox="0 0 24 24" fill="none" xmlns="http://www.w3.org/2000/svg">
<path d="M2 20V19C2 15.134 5.13401 12 9 12" stroke="#f2f2f2" stroke-width="1.5" stroke-linecap="round" stroke-linejoin="round"/>
<path d="M15.8039 12.3135C16.4457 11.6088 17.5545 11.6088 18.1963 12.3135C18.5207 12.6697 18.9869 12.8628 19.4681 12.8403C20.4202 12.7958 21.2043 13.5799 21.1598 14.532C21.1373 15.0132 21.3304 15.4794 21.6866 15.8038C22.3913 16.4456 22.3913 17.5544 21.6866 18.1962C21.3304 18.5206 21.1373 18.9868 21.1598 19.468C21.2043 20.4201 20.4202 21.2042 19.4681 21.1597C18.9869 21.1372 18.5207 21.3303 18.1963 21.6865C17.5545 22.3912 16.4457 22.3912 15.8039 21.6865C15.4795 21.3303 15.0133 21.1372 14.5321 21.1597C13.58 21.2042 12.7959 20.4201 12.8404 19.468C12.8629 18.9868 12.6698 18.5206 12.3136 18.1962C11.6089 17.5544 11.6089 16.4456 12.3136 15.8038C12.6698 15.4794 12.8629 15.0132 12.8404 14.532C12.7959 13.5799 13.58 12.7958 14.5321 12.8403C15.0133 12.8628 15.4795 12.6697 15.8039 12.3135Z" stroke="#f2f2f2" stroke-width="1.5"/>
<path d="M15.3636 17L16.4546 18.0909L18.6364 15.9091" stroke="#f2f2f2" stroke-width="1.5" stroke-linecap="round" stroke-linejoin="round"/>
<path d="M9 12C11.2091 12 13 10.2091 13 8C13 5.79086 11.2091 4 9 4C6.79086 4 5 5.79086 5 8C5 10.2091 6.79086 12 9 12Z" stroke="#f2f2f2" stroke-width="1.5" stroke-linecap="round" stroke-linejoin="round"/>
</svg>
