<svg width="30" height="30" viewBox="0 0 30 30" fill="none" xmlns="http://www.w3.org/2000/svg">
<g clip-path="url(#clip0_2448_1721)">
<path d="M22.1985 17.2383C22.14 17.2102 19.9529 16.1333 19.5643 15.9934C19.4056 15.9364 19.2357 15.8808 19.0549 15.8808C18.7596 15.8808 18.5115 16.028 18.3182 16.3171C18.0998 16.6418 17.4384 17.4149 17.234 17.6458C17.2073 17.6763 17.1709 17.7127 17.1491 17.7127C17.1295 17.7127 16.791 17.5734 16.6886 17.5289C14.3424 16.5097 12.5616 14.059 12.3174 13.6457C12.2826 13.5863 12.2811 13.5593 12.2808 13.5593C12.2894 13.5278 12.3683 13.4488 12.409 13.4079C12.5281 13.2901 12.6572 13.1347 12.7821 12.9844C12.8412 12.9132 12.9004 12.8419 12.9585 12.7747C13.1397 12.5639 13.2204 12.4003 13.3139 12.2108L13.3629 12.1123C13.5912 11.6587 13.3962 11.2759 13.3332 11.1523C13.2814 11.0489 12.358 8.82009 12.2598 8.58593C12.0237 8.0209 11.7117 7.75781 11.2782 7.75781C11.2379 7.75781 11.2782 7.75781 11.1095 7.76492C10.904 7.77359 9.78537 7.92086 9.29076 8.23265C8.76624 8.56333 7.87891 9.61742 7.87891 11.4712C7.87891 13.1396 8.93767 14.7149 9.39225 15.314C9.40355 15.3291 9.4243 15.3598 9.45439 15.4038C11.1953 17.9462 13.3655 19.8304 15.5655 20.7092C17.6835 21.5553 18.6865 21.6531 19.2567 21.6531H19.2568C19.4964 21.6531 19.6882 21.6343 19.8574 21.6176L19.9647 21.6074C20.6964 21.5425 22.3043 20.7093 22.6701 19.6929C22.9582 18.8924 23.0342 18.0177 22.8425 17.7003C22.7112 17.4844 22.4849 17.3758 22.1985 17.2383Z" fill="white"/>
<path d="M15.2663 0C7.14134 0 0.531211 6.56045 0.531211 14.6243C0.531211 17.2325 1.2292 19.7855 2.55144 22.0199L0.0206267 29.4853C-0.0265161 29.6245 0.0085488 29.7784 0.111503 29.8832C0.185822 29.9591 0.286633 30 0.389588 30C0.429036 30 0.468776 29.9941 0.507542 29.9817L8.29196 27.508C10.4222 28.6462 12.8298 29.247 15.2664 29.247C23.3905 29.2471 30 22.6873 30 14.6243C30 6.56045 23.3905 0 15.2663 0ZM15.2663 26.2007C12.9735 26.2007 10.7528 25.5387 8.84394 24.2861C8.77975 24.2439 8.70524 24.2223 8.63024 24.2223C8.59059 24.2223 8.55085 24.2283 8.51219 24.2406L4.61267 25.4801L5.8715 21.7663C5.91222 21.6461 5.89186 21.5135 5.81686 21.411C4.36322 19.4248 3.59482 17.0781 3.59482 14.6243C3.59482 8.24026 8.8306 3.04636 15.2662 3.04636C21.701 3.04636 26.9362 8.24026 26.9362 14.6243C26.9363 21.0076 21.7012 26.2007 15.2663 26.2007Z" fill="white"/>
</g>
<defs>
<clipPath id="clip0_2448_1721">
<rect width="30" height="30" fill="white"/>
</clipPath>
</defs>
</svg>
