<svg width="24" height="24" viewBox="0 0 24 24" fill="none" xmlns="http://www.w3.org/2000/svg">
<g clip-path="url(#clip0_2004_2983)">
<path d="M19.3641 4.63599C19.739 5.01104 19.9497 5.51966 19.9497 6.04999C19.9497 6.58032 19.739 7.08893 19.3641 7.46399C19.7924 8.66012 19.887 9.95026 19.638 11.1961C19.3889 12.4419 18.8054 13.5965 17.9501 14.536L15.8281 16.656C15.4417 17.1489 15.1763 17.7256 15.0535 18.3398C14.9307 18.954 14.9539 19.5884 15.1211 20.192L3.80811 8.87999C4.41155 9.04704 5.04579 9.0701 5.65977 8.9473C6.27375 8.82451 6.85033 8.55929 7.34311 8.17299L9.46411 6.04999C10.4036 5.1947 11.5582 4.61124 12.804 4.36214C14.0498 4.11304 15.34 4.20771 16.5361 4.63599C16.9112 4.26105 17.4198 4.05042 17.9501 4.05042C18.4804 4.05042 18.989 4.26105 19.3641 4.63599V4.63599Z" stroke="#21272A" stroke-width="2" stroke-linecap="round" stroke-linejoin="round"/>
<path d="M7.34308 12.414L6.63608 13.121C6.07342 13.6837 5.75732 14.4468 5.75732 15.2425C5.75732 16.0382 6.07342 16.8013 6.63608 17.364C7.19874 17.9267 7.96186 18.2428 8.75758 18.2428C9.55329 18.2428 10.3164 17.9267 10.8791 17.364L11.5861 16.657" stroke="#21272A" stroke-width="2" stroke-linecap="round" stroke-linejoin="round"/>
</g>
<defs>
<clipPath id="clip0_2004_2983">
<rect width="24" height="24" fill="white"/>
</clipPath>
</defs>
</svg>
