<svg width="24" height="24" viewBox="0 0 24 24" fill="none" xmlns="http://www.w3.org/2000/svg">
<g clip-path="url(#clip0_2004_3338)">
<path d="M19.3636 4.63599C19.7386 5.01104 19.9492 5.51966 19.9492 6.04999C19.9492 6.58032 19.7386 7.08893 19.3636 7.46399C19.7919 8.66012 19.8866 9.95026 19.6375 11.1961C19.3884 12.4419 18.8049 13.5965 17.9496 14.536L15.8276 16.656C15.4412 17.1489 15.1759 17.7256 15.0531 18.3398C14.9303 18.954 14.9534 19.5884 15.1206 20.192L3.80762 8.87999C4.41106 9.04704 5.0453 9.0701 5.65928 8.9473C6.27326 8.82451 6.84984 8.55929 7.34262 8.17299L9.46362 6.04999C10.4031 5.1947 11.5577 4.61124 12.8035 4.36214C14.0493 4.11304 15.3395 4.20771 16.5356 4.63599C16.9107 4.26105 17.4193 4.05042 17.9496 4.05042C18.4799 4.05042 18.9886 4.26105 19.3636 4.63599V4.63599Z" stroke="#F2F2F2" stroke-opacity="0.94902" stroke-width="2" stroke-linecap="round" stroke-linejoin="round"/>
<path d="M7.34259 12.414L6.63559 13.121C6.07293 13.6837 5.75684 14.4468 5.75684 15.2425C5.75684 16.0382 6.07293 16.8013 6.63559 17.364C7.19825 17.9267 7.96137 18.2428 8.75709 18.2428C9.55281 18.2428 10.3159 17.9267 10.8786 17.364L11.5856 16.657" stroke="#F2F2F2" stroke-opacity="0.94902" stroke-width="2" stroke-linecap="round" stroke-linejoin="round"/>
</g>
<defs>
<clipPath id="clip0_2004_3338">
<rect width="24" height="24" fill="white"/>
</clipPath>
</defs>
</svg>
