<svg width="24" height="24" viewBox="0 0 24 24" fill="none" xmlns="http://www.w3.org/2000/svg">
<path fill-rule="evenodd" clip-rule="evenodd" d="M21 10.5C21.4142 10.5 21.75 10.8358 21.75 11.25V21C21.75 21.4142 21.4142 21.75 21 21.75C20.5858 21.75 20.25 21.4142 20.25 21V11.25C20.25 10.8358 20.5858 10.5 21 10.5Z" fill="#21272A"/>
<path fill-rule="evenodd" clip-rule="evenodd" d="M3 10.5C3.41421 10.5 3.75 10.8358 3.75 11.25V21C3.75 21.4142 3.41421 21.75 3 21.75C2.58579 21.75 2.25 21.4142 2.25 21V11.25C2.25 10.8358 2.58579 10.5 3 10.5Z" fill="#21272A"/>
<path fill-rule="evenodd" clip-rule="evenodd" d="M3.0496 3.36535C3.57943 2.20923 4.78479 1.5 6.07188 1.5H17.9284C19.2155 1.5 20.4209 2.20923 20.9507 3.36535L20.9508 3.3655L22.9803 7.79671C22.9804 7.79683 22.9804 7.79695 22.9805 7.79707C23.9186 9.84311 22.3294 12.0243 20.1099 12.0934C20.1021 12.0936 20.0944 12.0938 20.0866 12.0938H19.9952C18.9416 12.0938 17.9664 11.6361 17.3302 10.8981C16.6939 11.6362 15.7185 12.0938 14.665 12.0938C13.6135 12.0938 12.65 11.613 12.0165 10.8801C11.3815 11.6285 10.4001 12.0938 9.33766 12.0938C8.27729 12.0938 7.3062 11.6048 6.67286 10.8614C6.03962 11.6052 5.06823 12.0938 4.0075 12.0938H3.91375C3.9061 12.0938 3.89845 12.0936 3.8908 12.0934C1.67048 12.0254 0.0819573 9.84364 1.01984 7.79707C1.01987 7.797 1.01989 7.79694 1.01992 7.79688L3.0496 3.36535ZM7.42234 8.89547C7.42234 9.70454 8.23635 10.5938 9.33766 10.5938C10.4556 10.5938 11.2502 9.77583 11.2502 8.89547C11.2502 8.48126 11.5859 8.14547 12.0002 8.14547C12.4144 8.14547 12.7502 8.48126 12.7502 8.89547C12.7502 9.7047 13.5639 10.5938 14.665 10.5938C15.784 10.5938 16.5803 9.77484 16.5803 8.89547C16.5803 8.48126 16.9161 8.14547 17.3303 8.14547C17.7445 8.14547 18.0803 8.48126 18.0803 8.89547C18.0803 9.77501 18.8764 10.5938 19.9952 10.5938H20.074C21.3686 10.5469 22.0441 9.35362 21.6169 8.42204L21.6167 8.42168L19.5871 3.99028C19.5871 3.99023 19.587 3.99017 19.587 3.99012C19.3237 3.4157 18.6841 3 17.9284 3H6.07188C5.31621 3 4.67662 3.4157 4.41329 3.99012C4.41327 3.99017 4.41324 3.99023 4.41322 3.99028L2.38351 8.42187C1.95587 9.35488 2.63214 10.5478 3.92609 10.5938H4.0075C5.10911 10.5938 5.92234 9.70661 5.92234 8.89547C5.92234 8.48126 6.25813 8.14547 6.67234 8.14547C7.08656 8.14547 7.42234 8.48126 7.42234 8.89547Z" fill="#21272A"/>
<path fill-rule="evenodd" clip-rule="evenodd" d="M0.75 21.75C0.75 21.3358 1.08579 21 1.5 21H22.5C22.9142 21 23.25 21.3358 23.25 21.75C23.25 22.1642 22.9142 22.5 22.5 22.5H1.5C1.08579 22.5 0.75 22.1642 0.75 21.75Z" fill="#21272A"/>
<path fill-rule="evenodd" clip-rule="evenodd" d="M6.375 14.25C6.27554 14.25 6.18016 14.2895 6.10983 14.3598C6.03951 14.4302 6 14.5255 6 14.625V18H10.5V14.625C10.5 14.5255 10.4605 14.4302 10.3902 14.3598C10.3198 14.2895 10.2245 14.25 10.125 14.25H6.375ZM5.04917 13.2992C5.4008 12.9475 5.87772 12.75 6.375 12.75H10.125C10.6223 12.75 11.0992 12.9475 11.4508 13.2992C11.8025 13.6508 12 14.1277 12 14.625V18.75C12 19.1642 11.6642 19.5 11.25 19.5H5.25C4.83579 19.5 4.5 19.1642 4.5 18.75V14.625C4.5 14.1277 4.69754 13.6508 5.04917 13.2992Z" fill="#21272A"/>
<path fill-rule="evenodd" clip-rule="evenodd" d="M14.625 14.25C14.5255 14.25 14.4302 14.2895 14.3598 14.3598C14.2895 14.4302 14.25 14.5255 14.25 14.625V21.75C14.25 22.1642 13.9142 22.5 13.5 22.5C13.0858 22.5 12.75 22.1642 12.75 21.75V14.625C12.75 14.1277 12.9475 13.6508 13.2992 13.2992C13.6508 12.9475 14.1277 12.75 14.625 12.75H17.625C18.1223 12.75 18.5992 12.9475 18.9508 13.2992C19.3025 13.6508 19.5 14.1277 19.5 14.625V21.75C19.5 22.1642 19.1642 22.5 18.75 22.5C18.3358 22.5 18 22.1642 18 21.75V14.625C18 14.5255 17.9605 14.4302 17.8902 14.3598C17.8198 14.2895 17.7245 14.25 17.625 14.25H14.625Z" fill="#21272A"/>
</svg>
