<svg width="24" height="24" viewBox="0 0 24 24" fill="none" xmlns="http://www.w3.org/2000/svg">
<path d="M13.7152 19.1147L8.0902 4.11468C8.0165 3.9181 7.88456 3.74869 7.71201 3.6291C7.53946 3.50951 7.33452 3.44543 7.12458 3.44543C6.91463 3.44543 6.70969 3.50951 6.53714 3.6291C6.36459 3.74869 6.23265 3.9181 6.15895 4.11468L0.53395 19.1147C0.440916 19.3701 0.452504 19.652 0.566195 19.8989C0.679885 20.1458 0.88648 20.3379 1.14104 20.4333C1.3956 20.5287 1.67753 20.5197 1.92551 20.4083C2.17348 20.2969 2.36745 20.0921 2.4652 19.8384L4.1602 15.3187C4.16688 15.3009 4.17884 15.2855 4.19451 15.2746C4.21017 15.2637 4.22878 15.2578 4.24786 15.2578H10.0013C10.0204 15.2578 10.039 15.2637 10.0546 15.2746C10.0703 15.2855 10.0823 15.3009 10.089 15.3187L11.7839 19.8384C11.8817 20.0921 12.0757 20.2969 12.3236 20.4083C12.5716 20.5197 12.8535 20.5287 13.1081 20.4333C13.3627 20.3379 13.5693 20.1458 13.683 19.8989C13.7966 19.652 13.8082 19.3701 13.7152 19.1147ZM5.00395 13.0678L7.03692 7.64671C7.04367 7.62893 7.05566 7.61361 7.07132 7.60281C7.08698 7.592 7.10555 7.58621 7.12458 7.58621C7.1436 7.58621 7.16217 7.592 7.17783 7.60281C7.19349 7.61361 7.20548 7.62893 7.21223 7.64671L9.2452 13.0687C9.25049 13.0829 9.25228 13.0982 9.25041 13.1132C9.24854 13.1282 9.24306 13.1425 9.23445 13.1549C9.22584 13.1674 9.21435 13.1775 9.20095 13.1846C9.18756 13.1916 9.17267 13.1953 9.15754 13.1953H5.09161C5.07648 13.1953 5.06159 13.1916 5.0482 13.1846C5.0348 13.1775 5.02331 13.1674 5.0147 13.1549C5.00609 13.1425 5.00061 13.1282 4.99874 13.1132C4.99687 13.0982 4.99866 13.0829 5.00395 13.0687V13.0678Z" fill="#21272A"/>
<path d="M18.7861 7.94532C16.8305 7.93126 15.0792 9.06423 14.333 10.8234C14.2261 11.0752 14.2235 11.3591 14.3259 11.6127C14.4283 11.8663 14.6273 12.0689 14.8791 12.1758C15.1308 12.2827 15.4147 12.2852 15.6683 12.1828C15.9219 12.0804 16.1245 11.8814 16.2314 11.6297C16.6477 10.6505 17.6269 10.0153 18.7308 10.0078C20.2458 9.99751 21.4688 11.25 21.4688 12.7664C21.4688 12.7847 21.4617 12.8022 21.449 12.8153C21.4363 12.8284 21.419 12.8361 21.4008 12.8367C20.3733 12.8653 19.1545 12.9338 18.067 13.0617C15.5006 13.3636 13.9688 14.7628 13.9688 16.8047C13.9688 17.8917 14.3794 18.8672 15.1252 19.5553C15.825 20.1999 16.7812 20.5547 17.8125 20.5547C19.2656 20.5547 20.5167 20.1797 21.4659 19.4663H21.4688C21.4682 19.6017 21.4943 19.7359 21.5455 19.8612C21.5968 19.9866 21.6723 20.1006 21.7676 20.1968C21.863 20.2929 21.9763 20.3694 22.1012 20.4218C22.2261 20.4741 22.3601 20.5014 22.4955 20.502C22.631 20.5025 22.7652 20.4764 22.8905 20.4252C23.0159 20.3739 23.1299 20.2984 23.2261 20.2031C23.3222 20.1077 23.3987 19.9944 23.451 19.8695C23.5034 19.7446 23.5307 19.6106 23.5312 19.4752V12.772C23.5312 10.1386 21.4219 7.96454 18.7861 7.94532ZM17.8125 18.4922C16.9908 18.4922 16.0312 18.0502 16.0312 16.8047C16.0312 16.3045 16.2108 15.9544 16.6139 15.6689C17.0062 15.3909 17.6077 15.1927 18.308 15.1102C19.298 14.9934 20.4089 14.9292 21.3614 14.9006C21.3741 14.9006 21.3867 14.9032 21.3984 14.9082C21.4101 14.9132 21.4206 14.9205 21.4294 14.9297C21.4382 14.9389 21.445 14.9498 21.4494 14.9618C21.4538 14.9737 21.4558 14.9864 21.4552 14.9991C21.3281 17.3484 20.1309 18.4922 17.8125 18.4922Z" fill="#21272A"/>
</svg>
